Coordinates
version=1
nRows=11
nColumns=40
inDegrees=yes

Units are S.I. units (second, meters, Newtons, ...)
Angles are in degrees.

endheader
time	pelvis_tilt	pelvis_list	pelvis_rotation	pelvis_tx	pelvis_ty	pelvis_tz	hip_flexion_r	hip_adduction_r	hip_rotation_r	knee_angle_r	knee_angle_r_beta	ankle_angle_r	subtalar_angle_r	mtp_angle_r	hip_flexion_l	hip_adduction_l	hip_rotation_l	knee_angle_l	knee_angle_l_beta	ankle_angle_l	subtalar_angle_l	mtp_angle_l	lumbar_extension	lumbar_bending	lumbar_rotation	arm_flex_r	arm_add_r	arm_rot_r	elbow_flex_r	pro_sup_r	wrist_flex_r	wrist_dev_r	arm_flex_l	arm_add_l	arm_rot_l	elbow_flex_l	pro_sup_l	wrist_flex_l	wrist_dev_l
     16.28500000	     -1.75015457	     -4.71676324	      5.53470697	      1.02544600	      0.92938783	      0.51199877	      1.31710713	      4.11698997	    -17.70819024	     12.18433642	     12.18433642	     15.84669420	      9.02931273	     -6.11428642	     28.17011708	     -8.53605108	     -3.06872268	     20.02449652	     20.02449652	      4.60998275	     -4.92045955	      6.46155418	    -10.87126799	      7.56287017	      3.47777289	     31.41942867	    -18.34839943	     -1.13259155	     66.59152400	     44.78223728	      0.00000000	      0.00000000	     -4.42363672	     -7.09660732	    -14.70440016	     31.57817602	     46.71497788	      0.00000000	      0.00000000
     16.29921429	     -1.72382856	     -4.81627608	      5.26805185	      1.02650502	      0.92830582	      0.51037322	      0.96690974	      4.07245281	    -17.53560376	     12.50555118	     12.50555118	     16.31977800	      9.16715160	     -5.95297698	     27.59034772	     -8.37150466	     -2.46399055	     20.78320572	     20.78320572	      4.31967680	     -5.97699939	      6.34548294	    -10.75796642	      7.51301107	      3.58748716	     30.58057635	    -18.58522362	     -1.13386812	     66.75116779	     44.77968682	      0.00000000	      0.00000000	     -4.51982776	     -7.13125976	    -14.85028214	     31.90996377	     46.72854034	      0.00000000	      0.00000000
     16.31342857	     -1.82368592	     -4.87044599	      4.97540905	      1.02753573	      0.92725333	      0.50867098	      0.87250440	      3.92612630	    -17.29319709	     13.08406584	     13.08406584	     17.02647290	      9.21267673	     -5.35076629	     26.91826907	     -8.11338218	     -1.82578463	     21.01433164	     21.01433164	      3.79881582	     -7.21625223	      6.06164517	    -10.56829345	      7.37217760	      3.73737902	     29.41725845	    -18.94109586	     -1.23806057	     67.12724498	     44.78056623	      0.00000000	      0.00000000	     -4.66633833	     -7.08187937	    -15.07899200	     32.44227796	     46.74473452	      0.00000000	      0.00000000
     16.32764286	     -1.81802662	     -4.92951274	      4.71339788	      1.02870627	      0.92646975	      0.50692877	      0.49536179	      3.84741274	    -17.04525943	     13.29546514	     13.29546514	     17.32852265	      9.24252775	     -5.36813051	     26.28841533	     -8.02792489	     -1.70298889	     21.43825804	     21.43825804	      3.82116916	     -7.42180929	      5.93582283	    -10.48241419	      7.26298795	      3.46995801	     28.55942124	    -18.84962576	     -1.18204148	     66.90443406	     44.78385569	      0.00000000	      0.00000000	     -4.78756784	     -7.15715546	    -15.11019504	     32.41879174	     46.74571929	      0.00000000	      0.00000000
     16.34185714	     -1.79283660	     -4.92563573	      4.50307069	      1.02979541	      0.92587618	      0.50493738	      0.16446599	      3.66770891	    -16.78621365	     13.63775285	     13.63775285	     17.58394133	      9.16794522	     -5.32425492	     25.74621689	     -7.85466213	     -1.52384412	     21.89914430	     21.89914430	      3.90967112	     -7.79458368	      5.74122986	    -10.41794796	      7.09192369	      3.22936740	     27.62852772	    -18.82548765	     -1.14215762	     66.58465519	     44.79106815	      0.00000000	      0.00000000	     -4.78948434	     -7.26740905	    -15.14731793	     32.46129044	     46.74918025	      0.00000000	      0.00000000
     16.35607143	     -1.95389777	     -4.82115953	      4.26339300	      1.03046386	      0.92517175	      0.50276467	      0.38189720	      3.26569435	    -16.35577328	     14.62940711	     14.62940711	     18.15959968	      8.68005057	     -4.67013742	     25.42942021	     -7.46602332	     -0.98224420	     22.21292867	     22.21292867	      3.69447407	     -9.05421171	      5.19505740	    -10.27566529	      6.78545518	      3.35956292	     26.47711796	    -19.17034891	     -1.34788787	     65.89471524	     44.82747700	      0.00000000	      0.00000000	     -4.51210554	     -7.32983778	    -15.20713327	     32.70536051	     46.75185491	      0.00000000	      0.00000000
     16.37028571	     -1.99901159	     -4.84076276	      4.08773282	      1.03136256	      0.92505170	      0.50033689	      0.09879303	      3.08376900	    -16.16154724	     14.85528947	     14.85528947	     18.17545152	      8.67835180	     -4.61072478	     25.02720838	     -7.33500137	     -0.93349243	     22.47934642	     22.47934642	      4.05717955	     -9.31516134	      4.97237884	    -10.21800473	      6.69983305	      2.87323160	     25.67662699	    -19.14788497	     -1.32628907	     65.61522259	     44.83343387	      0.00000000	      0.00000000	     -4.38322036	     -7.38891244	    -15.20519805	     32.73884832	     46.75274948	      0.00000000	      0.00000000
     16.38450000	     -2.00139848	     -4.61699331	      3.94192179	      1.03211485	      0.92492987	      0.49773131	      0.16963148	      2.51643046	    -15.89123147	     15.92050957	     15.92050957	     18.63757528	      8.27327629	     -4.24368689	     24.77989042	     -6.90502657	     -0.66200232	     23.04679580	     23.04679580	      4.24335833	    -10.21791216	      4.46638263	    -10.22286982	      6.23939498	      2.85941133	     24.23207942	    -19.32630296	     -1.42460785	     64.57979908	     44.87225169	      0.00000000	      0.00000000	     -4.01717396	     -7.57228732	    -15.20066852	     32.82295482	     46.75197759	      0.00000000	      0.00000000
     16.39871429	     -2.12821635	     -4.47496091	      3.80940000	      1.03267076	      0.92499538	      0.49481821	      0.40475177	      1.98357313	    -15.73648966	     16.98754383	     16.98754383	     18.96931225	      8.05063321	     -3.54070093	     24.57304192	     -6.53466584	     -0.44588095	     23.31607925	     23.31607925	      4.46489737	    -11.01476543	      3.93538419	    -10.12780891	      5.97676065	      2.77414220	     22.96635044	    -19.46175218	     -1.68343255	     63.43265474	     44.92499232	      0.00000000	      0.00000000	     -3.58170230	     -7.64702313	    -15.08738445	     32.75618381	     46.73344838	      0.00000000	      0.00000000
     16.41292857	     -2.17158644	     -4.34425996	      3.67506167	      1.03327222	      0.92532389	      0.49173685	      0.56304655	      1.43839508	    -15.62467503	     18.07014345	     18.07014345	     19.15554517	      7.95465580	     -3.12663913	     24.32210916	     -6.22577489	     -0.38782228	     23.65272377	     23.65272377	      4.87453860	    -11.50203832	      3.53292358	    -10.11666757	      5.73841721	      2.61910749	     21.69488657	    -19.57899171	     -1.86144940	     62.33967454	     44.97103025	      0.00000000	      0.00000000	     -3.16439390	     -7.70906748	    -14.96404222	     32.74084682	     46.71509261	      0.00000000	      0.00000000
     16.42714286	     -2.07300948	     -4.34557069	      3.59817055	      1.03405170	      0.92607007	      0.48853655	      0.39074779	      1.10428442	    -15.50246988	     18.76190483	     18.76190483	     19.01275379	      7.88672782	     -3.09767833	     23.91301716	     -6.06995432	     -0.35691784	     23.95333119	     23.95333119	      5.43156384	    -11.76483619	      3.27010227	    -10.27462106	      5.69292597	      2.08579468	     20.38999890	    -19.50581085	     -1.81108151	     61.70334169	     44.98625679	      0.00000000	      0.00000000	     -2.94744577	     -7.81189800	    -14.94420764	     32.80019059	     46.71437961	      0.00000000	      0.00000000
